<svg width="90" height="28" viewBox="0 0 90 28" fill="none" xmlns="http://www.w3.org/2000/svg">
<path d="M9.47069 27.4983C7.65738 27.4983 6.02978 27.1159 4.58788 26.3513C3.14597 25.5866 2.02085 24.5271 1.21251 23.1726C0.40417 21.7962 0 20.245 0 18.5191C0 16.7932 0.40417 15.253 1.21251 13.8985C2.02085 12.544 3.13505 11.4844 4.55511 10.7197C5.99701 9.9551 7.63554 9.57277 9.47069 9.57277C11.1966 9.57277 12.704 9.92233 13.993 10.6214C15.3038 11.3205 16.287 12.3255 16.9424 13.6363L13.7964 15.4715C13.2939 14.6631 12.6604 14.0623 11.8957 13.6691C11.1529 13.254 10.3336 13.0465 9.43792 13.0465C7.90863 13.0465 6.6415 13.5489 5.63653 14.5539C4.63157 15.537 4.12909 16.8588 4.12909 18.5191C4.12909 20.1795 4.62065 21.5122 5.60376 22.5171C6.60873 23.5003 7.88678 23.9918 9.43792 23.9918C10.3336 23.9918 11.1529 23.7952 11.8957 23.4019C12.6604 22.9869 13.2939 22.3751 13.7964 21.5668L16.9424 23.4019C16.2651 24.7128 15.2711 25.7287 13.9603 26.4496C12.6713 27.1487 11.1748 27.4983 9.47069 27.4983Z" fill="black"/>
<path d="M31.1377 9.57277C33.3442 9.57277 35.1138 10.2173 36.4465 11.5062C37.7791 12.7952 38.4455 14.7068 38.4455 17.2411V27.2689H34.3492V17.7654C34.3492 16.2361 33.9887 15.0892 33.2677 14.3245C32.5468 13.538 31.52 13.1448 30.1873 13.1448C28.6799 13.1448 27.4892 13.6036 26.6153 14.5211C25.7414 15.4169 25.3045 16.7168 25.3045 18.4208V27.2689H21.2082V2.95312H25.3045V11.8012C25.9818 11.0802 26.8119 10.534 27.7951 10.1626C28.8 9.7694 29.9142 9.57277 31.1377 9.57277Z" fill="black"/>
<path d="M51.2119 9.57277C53.7899 9.57277 55.7561 10.1954 57.1106 11.4407C58.487 12.6641 59.1752 14.5211 59.1752 17.0117V27.2689H55.3082V25.1388C54.8058 25.9034 54.0848 26.4933 53.1454 26.9084C52.2278 27.3016 51.1136 27.4983 49.8028 27.4983C48.492 27.4983 47.345 27.2798 46.3619 26.8429C45.3788 26.3841 44.6141 25.7614 44.0679 24.9749C43.5436 24.1666 43.2814 23.2599 43.2814 22.255C43.2814 20.682 43.8604 19.4258 45.0183 18.4864C46.198 17.5251 48.0441 17.0445 50.5565 17.0445H55.0788V16.7823C55.0788 15.5589 54.7074 14.6194 53.9646 13.964C53.2437 13.3086 52.1623 12.9809 50.7204 12.9809C49.7372 12.9809 48.7651 13.1338 47.8038 13.4397C46.8644 13.7456 46.0669 14.1716 45.4115 14.7177L43.8058 11.7356C44.7233 11.0365 45.8266 10.5013 47.1156 10.1299C48.4046 9.75848 49.77 9.57277 51.2119 9.57277ZM50.6548 24.5161C51.6816 24.5161 52.5883 24.2868 53.3748 23.828C54.1831 23.3473 54.7511 22.6701 55.0788 21.7962V19.7644H50.8514C48.492 19.7644 47.3122 20.54 47.3122 22.0911C47.3122 22.8339 47.6072 23.4238 48.197 23.8607C48.7869 24.2977 49.6062 24.5161 50.6548 24.5161Z" fill="black"/>
<path d="M65.3171 9.7694H69.4134V27.2689H65.3171V9.7694Z" fill="black"/>
<path d="M89.3399 23.9918V27.2689H74.2327V24.68L83.8345 13.0465H74.4293V9.7694H89.0778V12.3583L79.4432 23.9918H89.3399Z" fill="black"/>
<path fill-rule="evenodd" clip-rule="evenodd" d="M79.3528 6.76245L55.7475 4.33413L56.0523 1.37196L79.6575 3.80028L79.3528 6.76245Z" fill="#22EF8D"/>
</svg>
